PathFileType	4	(X/Y/Z)	C:/Users/opensim2020/Desktop/walking_exp_matlab/subject02_walking13_straight_01.trc																																																																																																																									
DataRate	CameraRate	NumFrames	NumMarkers	Units	OrigDataRate	OrigDataStartFrame	OrigNumFrames																																																																																																																					
100	100	5	41	mm	100	526	140																																																																																																																					
Frame#	Time	LFHD			RFHD			LBHD			RBHD			C7			T10			CLAV			STRN			RBAK			LSHO			LUPA			LELB			LFRM			LWRA			LWRB			LFIN			RSHO			RUPA			RELB			RFRM			RWRA			RWRB			RFIN			LASI			RASI			LPSI			RPSI			LTHI			LKNE			LTIB			LANK			LHEE			LTOE			RTHI			RKNE			RTIB			RANK			RHEE			RTOE			*39			*40		
		X1	Y1	Z1	X2	Y2	Z2	X3	Y3	Z3	X4	Y4	Z4	X5	Y5	Z5	X6	Y6	Z6	X7	Y7	Z7	X8	Y8	Z8	X9	Y9	Z9	X10	Y10	Z10	X11	Y11	Z11	X12	Y12	Z12	X13	Y13	Z13	X14	Y14	Z14	X15	Y15	Z15	X16	Y16	Z16	X17	Y17	Z17	X18	Y18	Z18	X19	Y19	Z19	X20	Y20	Z20	X21	Y21	Z21	X22	Y22	Z22	X23	Y23	Z23	X24	Y24	Z24	X25	Y25	Z25	X26	Y26	Z26	X27	Y27	Z27	X28	Y28	Z28	X29	Y29	Z29	X30	Y30	Z30	X31	Y31	Z31	X32	Y32	Z32	X33	Y33	Z33	X34	Y34	Z34	X35	Y35	Z35	X36	Y36	Z36	X37	Y37	Z37	X38	Y38	Z38	X39	Y39	Z39	X40	Y40	Z40	X41	Y41	Z41
																																																																																																																												
123	1.22	656.47107	1710.8385	-1071.30872	604.73126	1686.52527	-937.44916	535.25006	1642.84668	-1130.46338	471.90939	1617.61987	-1002.61462	448.65143	1492.88892	-1061.95862	414.84839	1211.98193	-1054.95215	593.99628	1432.40552	-1063.35583	655.96344	1266.54724	-1046.47937	398.03366	1314.24854	-995.58191	531.02557	1466.70264	-1236.6593	475.52661	1272.18933	-1312.4082	434.01273	1141.42212	-1312.92664	385.73773	1024.62073	-1336.19531	362.88129	883.77734	-1305.81323	337.92108	910.63086	-1349.45886	302.40018	849.66199	-1344.59155	513.71381	1467.5636	-872.03748	511.67389	1286.46484	-770.86932	562.63751	1152.60071	-725.1405	652.29114	1069.45483	-707.01959	763.93115	997.57416	-725.30872	728.51019	964.68365	-695.33081	795.83228	944.31641	-686.46545	680.00256	975.76196	-1165.41797	639.50537	942.09613	-910.75854	457.4791	1001.59076	-1120.24512	435.13794	997.00775	-1009.43262	708.15063	680.53009	-1249.63635	742.62085	480.98923	-1231.86462	748.91022	286.9079	-1248.21985	818.31262	75.4441	-1237.02173	782.07886	41.70618	-1193.6217	975.19513	62.12452	-1211.75037	485.90796	648.90576	-874.27106	429.75015	447.91153	-915.02759	301.24802	307.58951	-922.01782	191.09576	149.64029	-965.33075	139.772	117.91987	-1025.21667	306.31146	38.10347	-954.96228	531.22437	1777.04785	-1019.72333	2845.22705	1034.36121	-3360.28979
124	1.23	670.36719	1710.81152	-1071.13403	617.40234	1685.77014	-937.91174	549.40033	1643.00061	-1130.90576	485.13782	1617.54675	-1003.85858	461.55966	1492.25928	-1063.48364	429.81653	1211.1709	-1056.77905	607.54309	1432.6322	-1064.47876	670.27124	1267.21777	-1047.76111	412.09933	1312.97131	-997.59296	544.75262	1466.65454	-1237.94751	490.17694	1271.71765	-1313.73083	449.58655	1140.47363	-1314.41406	402.35385	1023.22833	-1337.05542	378.74979	882.2262	-1305.68848	355.32013	908.89294	-1350.59399	319.56189	847.9671	-1345.11267	526.16107	1466.71436	-872.98462	524.48798	1285.17773	-772.53168	574.8418	1150.83472	-727.08167	663.9267	1067.48987	-708.30505	775.50745	995.18994	-725.69061	739.6778	962.3111	-696.27576	806.73529	941.59589	-686.85791	695.99249	976.50305	-1168.18555	657.00806	942.08575	-913.97113	474.23297	1001.62183	-1122.73584	451.18198	995.66718	-1011.93689	723.26105	681.48712	-1251.95459	757.97339	482.53427	-1234.45679	761.19891	289.01694	-1250.03394	826.07513	73.77078	-1240.06152	785.38385	43.7559	-1198.00769	980.07996	52.10635	-1207.25208	502.46915	648.65936	-875.36523	447.0069	448.06412	-912.62579	313.61212	311.8172	-920.90704	199.2776	157.86566	-963.97229	147.89096	128.99655	-1024.86255	307.12759	38.06416	-954.61316	544.82227	1776.79663	-1019.89526	2845.73486	1034.40149	-3357.5188
125	1.24	683.953	1710.95496	-1070.49939	630.41486	1685.73706	-937.53638	563.45251	1643.68188	-1131.53748	498.2522	1617.62732	-1004.78143	474.91278	1492.14636	-1065.16553	444.80334	1210.49915	-1058.30334	620.96863	1433.21899	-1065.52161	684.71295	1268.19861	-1049.05957	425.88309	1312.07922	-999.64984	558.23718	1466.67651	-1239.14331	505.32986	1271.49219	-1315.31873	465.60071	1139.66333	-1316.03137	419.63702	1021.638	-1338.27661	396.97153	880.76703	-1306.05469	373.8934	906.86884	-1351.63159	338.26654	845.83539	-1345.54883	538.60144	1466.22327	-873.78412	536.4577	1283.47144	-774.5752	586.59552	1149.04712	-729.33545	675.19189	1065.45313	-709.9129	786.34601	992.44775	-726.41919	750.06866	959.7486	-697.52069	817.10999	938.69574	-687.49982	711.74371	977.13593	-1170.97437	674.89801	942.26624	-917.15662	490.38858	1002.40131	-1124.88379	467.23999	995.0376	-1013.91864	737.33118	681.961	-1255.15076	774.64526	484.35062	-1235.91858	774.73999	291.73965	-1255.52405	830.52972	73.2437	-1240.07458	786.76996	44.63041	-1199.26819	983.1167	47.2547	-1208.55579	519.78992	648.53729	-876.33429	466.03015	447.82724	-909.92645	328.3046	316.28284	-919.60565	209.03632	166.7811	-963.53741	158.37848	140.97963	-1025.38684	308.2569	38.00669	-954.4234	558.3396	1777.09558	-1020.05756	2845.23804	1034.26575	-3360.33569
126	1.25	697.81256	1711.5791	-1069.9939	643.20569	1685.69458	-937.85608	577.64624	1644.625	-1132.07776	511.85477	1618.26392	-1005.96124	488.57468	1492.86084	-1066.3855	459.5278	1210.74304	-1059.88623	634.52344	1434.15576	-1066.53052	699.04108	1269.54236	-1050.28979	439.77579	1311.8573	-1001.85278	571.69971	1467.36853	-1240.44275	520.56451	1271.58655	-1317.08057	482.14285	1139.31714	-1318.14063	437.67441	1020.38898	-1340.01062	416.55432	879.40387	-1306.6405	393.60165	904.63922	-1352.45288	358.53006	843.37799	-1346.05811	551.24036	1465.96008	-874.40167	548.71625	1282.54956	-776.49646	598.35114	1147.90283	-731.62653	685.81879	1063.27502	-711.65491	796.88245	989.60815	-727.23578	759.89722	957.02612	-698.99188	826.70483	935.38495	-688.2998	726.95514	977.72443	-1173.66919	690.37537	942.10565	-920.32111	505.92694	1004.01184	-1126.61145	483.10721	995.34467	-1015.00775	749.56677	682.70703	-1258.33716	790.85815	486.01889	-1235.88574	787.71613	294.24911	-1259.47253	830.10748	74.41734	-1238.58972	787.75134	45.6147	-1197.4198	985.28479	45.07156	-1213.58289	537.69879	648.12323	-877.36108	486.96307	447.35989	-907.32556	345.34445	320.66101	-918.27625	221.11127	175.79965	-963.22937	171.54614	153.14378	-1026.16528	309.75754	37.93907	-954.66046	571.89618	1777.68372	-1020.11444	2846.04712	1034.35767	-3357.38501
127	1.26	711.70209	1712.58533	-1069.36304	656.41663	1686.38489	-937.21729	591.90833	1646.0791	-1132.55981	525.23132	1619.28027	-1007.0791	502.10931	1493.87048	-1067.44885	474.01874	1211.45056	-1061.44641	648.06323	1435.47766	-1067.4447	713.08661	1271.12622	-1051.23718	454.17166	1311.94641	-1003.78467	585.02753	1468.28369	-1241.62769	536.13153	1271.78406	-1318.26819	498.98053	1138.8291	-1319.41687	456.49231	1019.0813	-1341.13904	437.42352	878.18091	-1307.28491	414.25049	902.77502	-1353.62085	380.41946	840.76093	-1346.6582	564.08417	1466.22693	-874.96637	560.58948	1281.81555	-778.69287	609.92084	1146.95447	-734.08295	696.49902	1061.44775	-713.48865	806.71997	986.51978	-728.38959	768.82446	954.12988	-700.66272	835.42621	931.86249	-689.46143	741.56921	978.40076	-1176.40955	706.48566	942.61041	-923.49396	520.60657	1006.38403	-1127.99231	498.40402	996.2002	-1015.45068	760.66449	683.59222	-1259.95496	805.10516	487.28094	-1235.20959	797.84656	295.50626	-1261.30505	830.51245	75.90557	-1236.93176	788.53235	46.22886	-1196.91394	987.02496	42.90652	-1212.65674	556.54443	647.43469	-878.14111	509.61884	446.51373	-905.5307	364.29785	324.87558	-917.19415	236.17245	184.62723	-962.91132	187.47548	165.56798	-1026.97363	311.65558	37.96187	-955.64178	585.45593	1778.68799	-1020.12762	2845.17554	1034.23596	-3360.27734
